<?xml version="1.0" encoding="utf-8"?>
<!-- Generator: Adobe Illustrator 23.0.1, SVG Export Plug-In . SVG Version: 6.00 Build 0)  -->
<svg version="1.1" id="레이어_1" xmlns="http://www.w3.org/2000/svg" xmlns:xlink="http://www.w3.org/1999/xlink" x="0px"
	 y="0px" viewBox="0 0 160 45" style="enable-background:new 0 0 160 45;" xml:space="preserve">
<g>
	<path d="M23.99,27.43c0,2.81-0.66,4.81-1.98,5.99c-1.71,1.51-4.91,2.26-9.59,2.26c-2.18,0-4.09-0.27-5.73-0.8
		c-1.64-0.53-2.84-1.39-3.59-2.57c-0.54-0.8-0.88-1.66-1.04-2.57c-0.16-0.92-0.24-2.03-0.24-3.33c0-0.59,0-1.04,0-1.33v-9.05
		c0-1.06,0.01-2.11,0.03-3.13c0.02-1.02,0.13-1.87,0.35-2.55c0.5-1.8,1.65-3.15,3.45-4.04c1.8-0.89,4.11-1.33,6.93-1.33
		c3.61,0,6.41,0.68,8.41,2.04c2,1.36,3,3.39,3,6.08v3.15h-9v-2.75c0-1.36-0.15-2.36-0.46-3c-0.3-0.64-0.87-0.95-1.69-0.95
		c-0.64,0-1.04,0.27-1.21,0.8s-0.24,1.42-0.24,2.66v15.71c0,1.54,0.52,2.31,1.55,2.31c0.82,0,1.43-0.32,1.82-0.95
		c0.39-0.64,0.59-1.5,0.59-2.6v-3.64h-2.52v-4.7h11.14V27.43z"/>
	<path d="M50.44,35.55h-9.88l-0.49-5.5h-3.51l-0.53,5.5h-9.8l4.87-30.53h13.87L50.44,35.55z M39.89,24.59
		c-0.32-2.25-0.64-4.75-0.96-7.52c-0.32-2.77-0.48-4.52-0.48-5.26c-0.25,1.42-0.61,3.77-1.07,7.06c-0.32,2.13-0.59,4.04-0.8,5.72
		H39.89z"/>
	<path d="M69.56,35.55H53.01V5.02h15.96v6.08H62.6v5.81h6v5.81h-6v6.75h6.96V35.55z"/>
	<path d="M94.89,26.81c0,1.48-0.13,2.7-0.38,3.66c-0.25,0.96-0.79,1.89-1.61,2.77c-0.82,0.89-1.94,1.51-3.35,1.86
		c-1.41,0.35-3.17,0.53-5.28,0.53c-2.39,0-4.43-0.23-6.1-0.69c-1.68-0.46-2.93-1.19-3.75-2.2c-0.64-0.86-1.05-1.81-1.23-2.86
		c-0.18-1.05-0.27-2.54-0.27-4.46V5.02h9.59v23.56c0,0.92,0.07,1.56,0.21,1.93c0.14,0.37,0.54,0.55,1.18,0.55
		c0.46,0,0.81-0.18,1.04-0.53c0.23-0.35,0.35-1.14,0.35-2.35V5.02h9.59V26.81z"/>
	<path d="M122.2,35.55H114l-7.07-14.33v14.33h-7.98V5.02h8.14l7.12,14.2V5.02h7.98V35.55z"/>
	<path d="M147.95,27.43c0,2.81-0.66,4.81-1.98,5.99c-1.71,1.51-4.91,2.26-9.58,2.26c-2.18,0-4.09-0.27-5.73-0.8
		c-1.64-0.53-2.84-1.39-3.59-2.57c-0.54-0.8-0.88-1.66-1.04-2.57c-0.16-0.92-0.24-2.03-0.24-3.33c0-0.59,0-1.04,0-1.33v-9.05
		c0-1.06,0.01-2.11,0.03-3.13c0.02-1.02,0.13-1.87,0.35-2.55c0.5-1.8,1.65-3.15,3.45-4.04c1.8-0.89,4.11-1.33,6.93-1.33
		c3.61,0,6.41,0.68,8.41,2.04c2,1.36,3,3.39,3,6.08v3.15h-9v-2.75c0-1.36-0.15-2.36-0.46-3c-0.3-0.64-0.87-0.95-1.69-0.95
		c-0.64,0-1.04,0.27-1.21,0.8c-0.16,0.53-0.24,1.42-0.24,2.66v15.71c0,1.54,0.52,2.31,1.55,2.31c0.82,0,1.43-0.32,1.82-0.95
		c0.39-0.64,0.59-1.5,0.59-2.6v-3.64h-2.52v-4.7h11.14V27.43z"/>
	<path d="M158.34,35.55h-6.96v-6.21h6.96V35.55z"/>
</g>
</svg>
